<?xml version="1.0" encoding="UTF-8" standalone="no"?>
<!-- Created with Inkscape (http://www.inkscape.org/) -->

<svg
   width="143.63124mm"
   height="137.45958mm"
   viewBox="0 0 143.63124 137.45958"
   version="1.1"
   id="svg5"
   xml:space="preserve"
   sodipodi:docname="puzzle.svg"
   inkscape:version="1.2.2 (732a01da63, 2022-12-09)"
   xmlns:inkscape="http://www.inkscape.org/namespaces/inkscape"
   xmlns:sodipodi="http://sodipodi.sourceforge.net/DTD/sodipodi-0.dtd"
   xmlns="http://www.w3.org/2000/svg"
   xmlns:svg="http://www.w3.org/2000/svg"><sodipodi:namedview
     id="namedview7"
     pagecolor="#ffffff"
     bordercolor="#6AD9D3"
     borderopacity="0.25"
     inkscape:showpageshadow="2"
     inkscape:pageopacity="0.0"
     inkscape:pagecheckerboard="0"
     inkscape:deskcolor="#d1d1d1"
     inkscape:document-units="mm"
     showgrid="false"
     inkscape:zoom="0.51465132"
     inkscape:cx="-271.0573"
     inkscape:cy="403.1856"
     inkscape:window-width="1920"
     inkscape:window-height="992"
     inkscape:window-x="-8"
     inkscape:window-y="-8"
     inkscape:window-maximized="1"
     inkscape:current-layer="layer1" /><defs
     id="defs2"><linearGradient
       id="linearGradient1118"
       inkscape:swatch="solid"><stop
         style="stop-color:#6907c5;stop-opacity:1;"
         offset="0"
         id="stop1116" /></linearGradient></defs><g
     inkscape:label="Layer 1"
     inkscape:groupmode="layer"
     id="layer1"
     transform="translate(-271.70986,-85.945639)"><path
       style="fill:#6AD9D3;stroke-width:0.183576"
       d="m 305.29038,223.28343 c -2.54718,-0.51289 -4.54059,-2.35791 -5.12469,-4.74324 l -0.23585,-0.96307 -9.39216,-0.002 c -5.56558,-0.001 -9.51512,-0.0673 -9.69397,-0.16135 -0.26215,-0.13789 -0.31503,-1.73766 -0.40241,-12.17244 l -0.10062,-12.01367 -1.37572,-0.21131 c -3.78797,-0.58189 -6.57143,-3.14206 -6.57182,-6.04468 -1.8e-4,-2.22231 0.5956,-2.46732 5.24233,-2.15555 3.15635,0.21179 2.80581,2.07271 2.80581,-14.8948 0,-16.09446 0.0281,-15.75293 -1.3709,-16.67203 -0.56864,-0.37361 -0.52594,-0.37293 -3.86049,-0.061 -4.16366,0.38935 -4.83526,-5.47756 -0.80483,-7.03071 0.87479,-0.3371 1.25789,-0.35061 11.3179,-0.39915 l 10.41246,-0.0503 0.0293,-4.47196 c 0.12336,-18.90387 0.0999,-28.79447 -0.0692,-29.06388 -0.33237,-0.52986 -14.05447,-0.34606 -15.75477,0.21102 -3.03784,0.99531 -5.13725,3.12119 -5.9376,6.01249 -0.40794,1.47368 2.63123,1.74072 6.1388,0.53938 3.457,-1.18399 6.3453,-0.42723 7.18786,1.88329 0.42934,1.17735 0.35036,14.81893 -0.0928,16.02948 -0.79839,2.1809 -3.11839,3.45766 -5.05745,2.78324 -1.36109,-0.47339 -0.85536,-1.27584 0.8041,-1.27584 1.77705,0 2.75432,-1.02615 3.0242,-3.17551 0.21425,-1.70648 -0.15911,-2.11748 -8.39883,-9.24544 -2.51944,-2.1795 -4.72801,-4.1997 -4.90795,-4.48934 -1.74451,-2.80821 1.41607,-8.25321 5.79562,-9.98451 l 1.54464,-0.61061 v -9.4138 c 0,-12.499075 0.35918,-13.627278 4.77646,-15.003032 3.56984,-1.111824 5.66146,-0.306772 5.87613,2.261694 l 0.11199,1.339915 23.11717,0.04257 c 25.88255,0.04768 23.66331,0.175327 23.66379,-1.361128 9.7e-4,-3.838094 8.96578,-3.584762 10.29531,0.290934 0.13067,0.380949 0.32338,0.786848 0.4282,0.901996 0.15113,0.165988 6.99859,0.209362 33.05147,0.209362 26.06965,0 32.89374,0.04328 33.02002,0.209362 0.35625,0.468622 0.16389,52.847927 -0.19979,54.399347 -1.94169,8.28305 -10.08896,15.5318 -21.81971,19.41334 -2.42211,0.80143 -2.12974,3.14083 0.74336,5.94792 1.3131,1.28295 1.13002,1.21994 4.13575,1.42312 6.79942,0.45961 6.54219,0.59946 6.54219,-3.55709 0,-3.87981 0.29763,-4.31295 2.95782,-4.30456 7.1408,0.0225 10.29783,8.90206 4.79395,13.48361 -5.03565,4.19179 -11.94262,3.18199 -15.79025,-2.30853 -1.38632,-1.97826 -1.2527,-1.88956 -3.09344,-2.05365 l -1.34292,-0.1197 v 3.92032 c 0,5.42408 0.4658,6.68441 3.0574,8.27252 2.30531,1.41269 2.61068,1.44349 12.33495,1.24408 6.31924,-0.12956 8.23455,0.99974 8.2399,4.85843 0.003,2.49413 -0.72168,3.23269 -3.38893,3.45146 -2.09504,0.17186 -2.2443,0.34711 -2.42342,2.84511 -0.2129,2.96938 -0.0819,3.23679 1.59659,3.25774 1.85639,0.0232 2.96209,0.25324 3.44012,0.71585 l 0.44616,0.43175 -0.0575,7.82759 -0.0575,7.82757 -0.4772,0.15102 c -0.28064,0.0889 -21.58343,0.12794 -51.71793,0.095 -28.18239,-0.0308 -51.3068,-0.001 -51.38758,0.0662 -0.0808,0.0672 -0.12854,0.69852 -0.10616,1.40285 0.0921,2.89499 -2.70587,4.9116 -5.91736,4.26495 z m 33.60157,-9.89352 v -2.76358 l -1.51279,-0.10246 c -7.31967,-0.49577 -11.64139,-6.9515 -9.15688,-13.6784 0.35575,-0.96319 0.22089,-1.28802 -0.87802,-2.1147 -0.41984,-0.31584 -0.57455,-0.76961 -0.2624,-0.76961 0.089,0 0.46889,0.26379 0.8443,0.58621 0.86904,0.74636 0.82103,0.75852 1.48771,-0.37686 0.98972,-1.68551 2.32696,-3.06245 5.99878,-6.17683 l 3.5799,-3.03643 v -1.28475 c 0,-3.35186 -4.43578,-5.81817 -11.62289,-6.46235 -7.86214,-0.70466 -9.90935,-2.98811 -9.90277,-11.04551 0.006,-7.37151 1.14955,-9.37923 7.28606,-12.79231 5.16229,-2.87123 6.26188,-4.79321 6.14825,-10.74662 l -0.0575,-3.0148 h -2.3038 -2.3038 l -0.23279,1.35625 c -0.44717,2.60523 -1.86133,4.30877 -4.46733,5.38145 l -1.53494,0.63182 -4.43783,0.0544 c -5.37255,0.066 -4.82868,-0.54501 -4.13797,4.6483 1.52134,11.43841 1.15254,13.56909 -2.83253,16.36447 l -0.88782,0.62275 1.86117,1.51882 c 1.02363,0.83534 1.86116,1.54688 1.86116,1.5812 0,0.37893 -0.69126,0.006 -2.32269,-1.25607 -1.07366,-0.83 -2.0247,-1.5091 -2.1134,-1.5091 -0.0887,0 -0.83757,0.22544 -1.66418,0.50095 -2.30311,0.76768 -4.86441,1.28544 -9.5289,1.92624 -7.81548,1.07369 -11.00277,2.32275 -13.25267,5.19358 -0.35448,0.45233 -0.40384,0.89838 -0.49439,4.46967 l -0.10063,3.96719 -0.58856,0.51105 c -0.77995,0.67725 -1.45733,0.75746 -4.34685,0.51473 -3.37095,-0.28315 -4.01907,0.38091 -2.61225,2.67642 2.275,3.71207 11.67242,4.58738 11.67242,1.08721 0,-2.08717 0.82577,-3.09317 2.53904,-3.09317 1.66425,0 2.45838,1.03387 2.48236,3.23178 0.0184,1.68277 0.61667,1.83783 6.80354,1.76309 l 4.46447,-0.0539 0.53503,-0.4457 c 0.49239,-0.41018 0.54723,-0.59698 0.68844,-2.34485 0.23146,-2.86489 1.33239,-5.07075 3.37107,-6.75431 l 1.10572,-0.91311 -0.58237,-0.1889 c -5.04996,-1.63801 -12.1721,3.60536 -7.72395,5.68641 1.2254,0.5733 1.36245,1.36011 0.23667,1.35881 -2.37164,-0.002 -3.8444,-2.92359 -2.56864,-5.0942 1.30348,-2.21774 4.97722,-3.64886 8.56693,-3.33728 1.29266,0.11215 1.23386,0.14506 3.41869,-1.91036 0.80784,-0.75997 1.54644,-1.38177 1.64134,-1.38177 0.4228,0 0.0686,0.45842 -1.33652,1.72951 -1.98997,1.80022 -1.99847,1.77137 0.60362,2.05047 0.55332,0.0594 2.26784,0.32843 3.81006,0.59796 1.54222,0.26951 4.34906,0.63847 6.23742,0.81992 6.72663,0.64631 7.49984,0.9708 10.89311,4.57139 0.76637,0.81319 1.57026,1.66192 1.78643,1.88608 0.36681,0.38035 0.37066,0.42616 0.0577,0.68665 -0.61664,0.5133 -1.39502,-0.0319 -4.20563,-2.94656 -1.9175,-1.98836 -3.03486,-2.38074 -8.1589,-2.86513 -4.09082,-0.38672 -4.2533,-0.40654 -7.07298,-0.8623 -2.81624,-0.45523 -2.52632,-1.56018 -2.64301,10.07337 l -0.10063,10.03023 -0.5816,0.5052 c -1.5766,1.36952 -3.3605,0.74333 -5.99363,-2.1039 -2.14052,-2.31455 -4.65881,-2.31952 -5.58168,-0.0115 -0.5217,1.30497 -1.23019,1.91121 -2.55058,2.18246 l -0.98666,0.2027 -0.0586,1.09833 c -0.0829,1.55357 0.19948,1.74346 2.62551,1.76558 1.91641,0.0174 2.56209,0.277 2.23854,0.89979 -1.66036,3.196 3.13217,4.65794 5.04046,1.53755 2.52675,-4.13167 5.94886,-1.79212 5.94886,4.06698 0,4.47123 -1.98412,3.934 14.3863,3.89529 l 13.48087,-0.032 z m 22.04779,2.63795 c 0.0134,-0.17926 0.003,-20.45155 -0.0111,-20.75063 -0.003,-0.0592 -0.66134,-0.23815 -1.46365,-0.39775 -6.08556,-1.21056 -11.58415,-4.13718 -12.42451,-6.61297 -0.4993,-1.47096 -0.18108,-4.19677 0.51593,-4.4194 0.97271,-0.31072 1.46778,0.34936 0.98435,1.31247 -1.54808,3.0842 2.90923,6.58561 10.54953,8.28711 2.19727,0.48936 2.03648,0.9982 2.0148,-6.37596 -0.0202,-6.87345 -0.0191,-6.88121 1.1388,-7.32034 1.50087,-0.56925 2.54517,-0.17368 5.24806,1.98793 4.04877,3.23797 9.39972,2.61692 10.9407,-1.26986 0.9337,-2.35504 -2.53128,-4.21627 -4.42948,-2.37932 -3.12656,3.02566 -3.92823,2.58132 -3.7728,-2.09121 l 0.0989,-2.97294 h -14.86371 -14.86369 v 4.62972 4.6297 l 2.8169,2.38109 c 1.54929,1.3096 2.81689,2.46715 2.81689,2.57232 0,0.43037 -0.55529,0.10382 -2.80804,-1.65113 -1.30071,-1.01332 -2.46862,-1.84237 -2.59535,-1.84237 -0.17105,0 -0.2304,3.27288 -0.2304,12.70372 v 12.70372 l 2.10561,0.10723 c 3.27669,0.16691 4.37301,0.0196 5.39416,-0.72465 2.73031,-1.99001 4.37144,-1.08198 4.37144,2.41872 0,3.55174 -1.74293,4.0777 -4.82022,1.45461 -2.21528,-1.88833 -2.14976,-1.86271 -4.76589,-1.86399 -1.85966,-6.4e-4 -2.26289,0.044 -2.36418,0.26382 -0.16653,0.36125 -0.15565,5.17848 0.0121,5.31804 0.27078,0.22541 20.38768,0.12909 20.4046,-0.0976 z m 29.16827,-4.06162 c 0.0602,-2.30298 0.1281,-4.20068 0.1509,-4.21713 0.0229,-0.0164 0.18373,-0.14835 0.35763,-0.29311 0.43304,-0.36047 1.48997,-0.32432 2.0983,0.0717 0.58265,0.37938 1.20724,0.43613 1.20724,0.10963 0,-0.34258 -3.95357,-3.45841 -5.40522,-4.25989 -2.24379,-1.23883 -2.28722,-1.22172 -6.24019,2.45788 -4.05864,3.778 -5.00114,4.37416 -6.90947,4.37053 -3.9352,-0.008 -6.94048,-4.51813 -4.15634,-6.23828 1.02874,-0.63558 1.71544,0.0215 0.95342,0.91234 -1.52488,1.78265 1.20614,4.45986 3.87142,3.79513 1.07703,-0.26861 2.18576,-1.11674 5.38494,-4.11924 4.82284,-4.52634 5.43363,-4.52559 11.25346,0.0136 3.04256,2.37304 4.5955,2.3231 7.36029,-0.2367 3.5136,-3.25308 2.94548,-4.36226 -6.16266,-12.03186 -8.51716,-7.17192 -8.50614,-7.16504 -10.29416,-6.45874 -2.22512,0.87894 -1.75068,2.51424 1.36907,4.71875 3.11301,2.19976 3.17309,2.41897 0.91824,3.35079 -4.99928,2.06594 -11.75853,2.72481 -19.40756,1.8918 -1.65996,-0.18077 -3.22184,-0.3301 -3.47083,-0.33183 l -0.45272,-0.003 v 10.27266 c 0,12.23302 -2.29017,10.50641 13.86792,10.45528 l 13.59686,-0.043 z m -51.35692,-2.79708 c 0.18066,-0.15038 0.24205,-2.12187 0.2438,-7.83011 l 0.002,-7.62913 -1.9366,-1.54927 c -2.27418,-1.81935 -2.12737,-1.79066 -3.42921,-0.66996 -7.09517,6.10799 -5.26431,16.68308 3.06337,17.69403 1.7081,0.20735 1.78928,0.20673 2.05631,-0.0156 z m 0.20481,-35.66142 -0.064,-6.09363 -0.57938,-1.04418 c -2.1836,-3.93537 -9.38037,-4.99572 -9.38037,-1.38209 0,1.52961 -1.01977,2.1751 -1.45164,0.91887 -0.95168,-2.76814 1.70014,-4.78644 5.60636,-4.267 4.60017,0.61175 7.31409,3.5243 7.31409,7.84945 0,1.17198 0.0837,1.86363 0.24145,1.99494 0.3086,0.2569 19.98826,0.29318 20.17831,0.0372 0.17455,-0.23511 0.259,-17.21295 0.0868,-17.44492 -0.33565,-0.45209 -3.42175,0.35235 -4.68856,1.22214 -0.42989,0.29515 -1.35225,1.27098 -2.0497,2.16851 -4.55163,5.85743 -13.8926,4.4709 -15.00776,-2.22767 -0.37437,-2.24873 -0.11072,-15.31119 0.32895,-16.29843 2.71137,-6.0881 11.32652,-5.10593 12.48749,1.42366 0.65104,3.66168 3.14577,5.53189 7.63832,5.72617 l 1.20724,0.0522 0.0558,-2.58116 c 0.0686,-3.17913 -0.0758,-3.60048 -1.93137,-5.63507 -0.75147,-0.82399 -2.28028,-2.50136 -3.39737,-3.7275 -1.37481,-1.50902 -2.17821,-2.56432 -2.48646,-3.26604 -2.13669,-4.86396 -5.34587,-5.79775 -14.17209,-4.1237 -1.43863,0.27285 -3.42028,0.57221 -4.40367,0.66522 -0.9834,0.093 -1.86619,0.20936 -1.96177,0.25854 -0.0956,0.0492 -0.17514,4.32453 -0.17676,9.50079 -0.003,12.97581 -0.20565,13.4909 -6.72811,17.19433 -5.72274,3.24935 -6.73922,5.01718 -6.74428,11.72955 -0.006,7.32304 1.61154,9.10508 8.89987,9.80785 4.90396,0.47285 6.99046,1.10626 9.50507,2.88548 1.84702,1.30687 1.74675,1.62697 1.6736,-5.34354 z m 67.75086,4.6186 c 7.25273,-1.56234 8.88405,-10.02809 2.43329,-12.62754 -2.92377,-1.17818 -3.34675,-0.81749 -3.34675,2.85386 0,4.54103 -0.0529,4.58724 -5.2608,4.59156 -4.22721,0.003 -4.06824,-0.0741 -2.98168,1.45703 2.37494,3.34685 5.33022,4.54919 9.15594,3.72509 z m -33.52755,-7.57126 c 1.98827,-1.2501 3.37813,-1.81344 8.16743,-3.31031 3.75406,-1.17333 4.65026,-1.55074 3.21932,-1.35578 -9.33664,1.27215 -14.98993,-1.97775 -14.98993,-8.61721 0,-1.64454 -0.055,-1.98957 -0.35211,-2.21046 -0.6379,-0.47422 -3.23566,-1.01302 -4.96693,-1.03023 l -1.62261,-0.0162 -0.0524,8.6257 c -0.0288,4.74413 -0.007,8.72398 0.0481,8.84414 0.0793,0.17255 1.02307,0.20772 4.49273,0.16748 l 4.39222,-0.051 z m 11.31008,-5.98323 c 16.60044,-2.42342 28.24254,-11.96173 28.88207,-23.6629 0.15136,-2.76929 0.16757,-2.75293 -1.48009,-1.49389 -1.39699,1.06751 -15.72863,11.26941 -18.40335,13.10033 -7.18127,4.91579 -8.71522,5.60666 -12.43507,5.60059 -2.11073,-0.003 -3.57057,-0.33008 -6.70148,-1.4995 -3.58445,-1.33882 -3.56182,-1.35076 -3.28234,1.73125 0.452,4.98415 5.59024,7.36719 13.42026,6.22412 z m -34.83277,-5.18646 c 1.37537,-0.58892 2.04532,-1.14764 3.33588,-2.78212 1.90291,-2.40998 3.59062,-3.40179 6.54851,-3.84827 1.61925,-0.24442 1.57825,-0.17273 1.57825,-2.75976 0,-2.63764 0.0868,-2.52002 -1.96055,-2.65903 -4.92826,-0.33467 -7.90805,-2.58188 -8.61071,-6.49375 -0.97502,-5.42813 -7.8544,-6.44662 -9.64482,-1.42793 -0.44119,1.23671 -0.44418,15.39412 -0.003,16.62937 1.08427,3.03931 5.5146,4.72984 8.75693,3.34149 z m -57.64582,-2.2548 c 0.93322,-0.44127 1.04959,-1.02598 1.14507,-5.75357 l 0.0871,-4.31285 h -3.68448 c -2.80943,0 -3.6863,0.0497 -3.69207,0.20938 -0.32422,8.96054 1.57995,12.01525 6.14439,9.85704 z m 90.86954,-0.42547 c 2.12316,-0.37461 4.99357,-1.76548 6.66762,-3.23083 l 0.55536,-0.48611 -0.0524,-7.77732 -0.0524,-7.77732 h -3.01811 -3.0181 l -0.1324,1.23467 c -0.46703,4.35493 -3.98941,6.60857 -11.43094,7.31358 -1.49062,0.14121 -3.89002,0.47722 -5.332,0.7467 -1.44196,0.26947 -3.0292,0.55182 -3.52719,0.62747 l -0.90543,0.13753 v 2.50705 2.50703 l 0.60363,0.0438 c 3.5951,0.26107 6.80232,1.04797 11.54876,2.83351 4.03926,1.51952 5.55895,1.76741 8.09348,1.32021 z m -100.32627,-4.93283 c 1.92555,-0.73978 2.64298,-3.14161 1.2975,-4.34378 -0.45886,-0.41001 -6.89987,-0.55581 -8.4741,-0.19184 -3.19256,0.73813 -2.79184,5.09915 0.41784,4.5473 1.50161,-0.25819 2.98805,-0.23927 3.74066,0.0476 0.85449,0.32571 2.07863,0.30166 3.0181,-0.0592 z m 110.56328,-0.66743 c 0.49798,-0.32839 2.17304,-1.50512 3.72234,-2.61501 1.54929,-1.10987 4.62687,-3.29787 6.83907,-4.86223 5.07266,-3.58714 9.41279,-6.76887 9.61204,-7.04655 0.0844,-0.11753 0.12959,-3.06398 0.10061,-6.54766 l -0.0527,-6.33398 h -10.86518 -10.86517 l -0.0604,3.76851 c -0.0936,5.84361 0.70287,6.55531 4.87963,4.35984 3.74838,-1.97031 6.39441,-0.80219 6.09735,2.69174 -0.21547,2.53448 -1.01245,2.88062 -6.67695,2.89972 l -4.23962,0.0142 -0.0166,7.03454 c -0.0199,8.45974 -0.18038,7.76175 1.52561,6.63677 z m -90.38515,-1.46475 c 0.2529,-0.13561 0.77409,-0.78411 1.1582,-1.44109 1.35264,-2.31362 0.94374,-2.20519 8.74412,-2.31855 10.11274,-0.14692 12.68001,-1.71616 11.84941,-7.24287 -1.20902,-8.04472 -13.10337,-6.77128 -13.45391,1.44041 -0.10384,2.43267 -0.21071,2.78463 -0.84888,2.79637 -1.08762,0.02 -1.00208,-4.75211 0.12182,-6.79566 0.97029,-1.76422 3.39583,-3.41 5.57878,-3.78534 1.38803,-0.23864 1.41861,-0.3117 0.42481,-1.01466 -6.44837,-4.56123 -6.95512,-5.56193 -6.76426,-13.35767 0.21927,-8.95678 2.56837,-11.2721 11.8912,-11.72014 3.66749,-0.17626 4.48098,-0.31543 6.15125,-1.05241 2.33148,-1.02873 4.79711,-4.00203 4.09607,-4.93943 -0.19844,-0.265351 -21.59752,-0.303998 -23.29446,-0.0421 -4.24956,0.65592 -8.60972,4.47854 -10.0981,8.8531 -0.58646,1.72371 -0.81052,36.58064 -0.2469,38.41198 0.68138,2.21399 2.8107,3.21629 4.69085,2.20805 z m 63.728,-4.08386 c 1.49384,-0.27663 4.18684,-0.65463 5.98443,-0.83999 6.62122,-0.68276 9.39556,-2.52764 9.75529,-6.48702 0.10184,-1.12076 0.19221,-1.35668 0.67308,-1.75697 l 0.55546,-0.46238 h 8.26496 c 9.81181,0 9.50536,0.0793 9.22089,-2.38516 -0.18673,-1.61766 -1.39811,-1.86606 -3.4828,-0.7142 -2.05665,1.13635 -3.94864,1.40957 -5.70658,0.82406 -1.48227,-0.49371 -1.51236,-0.59731 -1.62568,-5.5967 l -0.10063,-4.43846 -7.81922,-0.0438 c -7.40125,-0.0415 -7.81113,-0.028 -7.66788,0.25123 3.32229,6.47825 -8.99657,8.93805 -12.58417,2.51276 -0.84442,-1.51231 -1.02446,-2.85629 -0.98418,-7.34709 0.0456,-5.08902 0.56024,-4.69639 -5.75815,-4.39328 l -2.21809,0.10643 -0.49821,0.84402 c -0.98199,1.66351 -3.3103,2.08971 -5.6594,1.03598 -6.34583,-2.84656 -6.40209,-2.81714 -6.40209,3.34907 0,5.49956 -0.098,5.22545 1.77484,4.96799 6.45655,-0.88759 9.56639,0.40307 12.19597,5.0616 0.8526,1.51046 1.66484,2.55525 3.87555,4.98511 4.22999,4.64933 4.28026,4.75076 4.28026,8.63647 v 2.39342 h 0.60511 c 0.3328,0 1.82735,-0.22637 3.32122,-0.503 z m -35.75729,-6.73255 c 0.17784,-0.14802 0.24146,-1.62742 0.24146,-5.61503 v -5.41404 l -0.51612,-0.16336 c -0.28386,-0.0898 -1.00228,-0.16333 -1.5965,-0.16333 -3.97844,0 -8.62857,-2.05429 -10.24447,-4.52567 -1.05893,-1.61956 -1.11881,-2.08174 -1.12139,-8.65422 -9.7e-4,-3.95452 -0.0741,-6.09846 -0.20851,-6.16763 -0.77885,-0.4007 -3.4597,1.02103 -4.59585,2.43729 -1.49915,1.8688 -1.53607,2.0659 -1.53607,8.20432 v 5.44691 l 0.69,1.16891 c 1.08754,1.8424 5.62281,5.39651 8.9935,7.04782 3.07662,1.50727 4.57451,3.08271 5.11164,5.37632 0.16394,0.70002 0.35004,1.06211 0.57111,1.11113 0.77336,0.1715 3.97955,0.10348 4.2112,-0.0895 z m -44.26787,-12.24901 c 0.091,-7.00423 -0.54584,-7.76566 -5.32536,-6.36695 -1.9761,0.5783 -2.37259,0.63795 -4.29001,0.64534 -2.69944,0.0103 -2.87936,-0.30136 2.50066,4.33326 2.47258,2.13001 4.98132,4.34055 5.57493,4.9123 1.51096,1.4553 1.47399,1.53994 1.53978,-3.52395 z m 84.91235,1.91501 c 2.63182,-1.11766 2.91816,-3.12964 0.7186,-5.0492 -2.05402,-1.79259 -2.21164,-7.90516 -0.18715,-7.25848 0.378,0.12075 0.35765,-0.069 0.31533,2.93993 -0.0495,3.51784 -1.09722,3.16724 9.30566,3.11376 l 8.49882,-0.0437 0.10061,-5.64836 c 0.11365,-6.38011 0.0804,-6.25618 1.73104,-6.43945 0.99005,-0.10997 1.67337,0.30283 2.30798,1.39409 2.64607,4.55005 9.94488,2.81032 9.94488,-2.37044 0,-2.44324 -1.15036,-3.91201 -3.92355,-5.00954 -1.68596,-0.66724 -8.34399,-0.91743 -8.56417,-0.32181 -1.43144,3.87221 -7.61205,2.56166 -10.47142,-2.22039 -3.05977,-5.11715 -8.93218,-2.246513 -8.93218,4.36635 0,3.12545 -0.19874,2.93415 3.04845,2.93415 4.31282,0 5.93112,0.62563 7.00789,2.70919 1.9292,3.73303 -2.19561,7.75628 -5.9819,5.8346 -1.33768,-0.67892 -0.66948,-1.24228 1.29444,-1.09132 2.33869,0.17976 3.48423,-0.68818 3.48423,-2.63992 0,-2.68306 -1.29961,-3.46993 -5.7344,-3.47196 -4.48705,-0.001 -4.79768,-0.30848 -4.66958,-4.60663 0.13388,-4.49171 1.24465,-6.185021 4.79482,-7.309425 3.22762,-1.022262 5.59756,-0.162343 7.08852,2.571995 1.60887,2.95057 5.12739,4.68805 6.90982,3.41213 l 0.56454,-0.40411 v -6.16983 -6.169842 l -13.72715,-0.04303 -13.72713,-0.04303 -0.0555,8.723562 -0.0556,8.72357 -0.75157,0.57325 -0.75158,0.57323 h -4.00556 c -4.61459,0 -4.24983,-0.15753 -4.24983,1.83558 0,1.76353 -0.11058,1.71781 3.64173,1.50576 3.86455,-0.21836 4.77479,-0.13052 5.54097,0.53468 l 0.57584,0.49996 0.10063,5.13967 c 0.11003,5.62416 0.15849,5.85798 1.52089,7.34484 1.69589,1.85082 4.97972,2.56236 7.29262,1.58014 z m -40.37877,-5.46022 c 0.33103,-8.43665 6.90181,-11.75805 15.66859,-7.92016 3.71736,1.62738 4.50073,1.15235 4.59202,-2.78452 0.087,-3.7543 -0.23264,-3.5319 5.07695,-3.5319 3.37526,0 4.04811,-0.0413 4.31711,-0.26459 0.36925,-0.30662 0.35031,0.26724 0.3218,-9.745355 l -0.0208,-7.330103 -6.08653,0.04433 -6.0865,0.04432 -0.12344,1.382042 c -0.40159,4.496454 -4.19421,6.904844 -11.13264,7.069467 l -3.81142,0.09044 -0.33665,0.94529 c -1.49907,4.20927 -4.94521,6.08548 -11.85941,6.45669 l -2.51509,0.13503 -0.0597,5.86212 c -0.0643,6.32054 0.0403,7.32348 0.90189,8.64879 1.60672,2.47142 5.77744,4.19688 9.92234,4.10493 l 1.10664,-0.0245 z m 5.47247,2.92018 c 2.8063,-0.47605 2.55156,0.0957 2.55156,-5.72703 v -5.02693 l -0.90419,0.10313 c -3.95457,0.4512 -5.73564,3.15891 -5.73564,8.71974 0,2.62719 -0.003,2.62527 4.08827,1.93106 z M 296.10412,110.5721 c 0.14876,-0.079 0.39297,-0.63004 0.54269,-1.22457 1.22921,-4.88144 5.91863,-9.30882 10.90423,-10.294939 2.15121,-0.425497 1.96468,-0.04453 1.96468,-4.012058 v -3.499025 h -9.15151 -9.15151 l -0.12605,0.645531 c -0.11128,0.56987 -0.42579,0.935212 -0.81188,0.943055 -0.40476,0.0082 -0.5528,-0.668515 -0.61219,-2.798428 -0.11207,-4.019641 -4.47722,-4.205843 -6.97567,-0.29756 l -0.53534,0.837445 -0.0567,9.705489 c -0.0311,5.33803 -0.0146,9.79665 0.0368,9.90808 0.11125,0.24133 13.52442,0.32484 13.97241,0.087 z m 44.16021,-11.906419 c 8.2868,-1.129739 9.93256,-10.973762 1.87307,-11.203694 -2.55208,-0.07281 -2.53368,-0.08332 -2.53815,1.449884 -0.003,1.162655 -0.3578,1.913132 -1.06151,2.247822 -0.34868,0.165845 -3.50007,0.23327 -13.93148,0.298072 l -13.4809,0.08375 -0.0545,3.412116 c -0.038,2.375397 0.0154,3.482223 0.17553,3.642881 0.27811,0.278936 27.01188,0.342664 29.01796,0.06918 z"
       id="path12463" /></g></svg>
